<svg xmlns="http://www.w3.org/2000/svg" viewBox="0 0 512 512" width="512" height="512">
  <rect width="512" height="512" rx="110" fill="#ffffff"/>
  <g transform="translate(60.99 321.82) scale(0.7408)"><path fill="#0f172a" d="M133.89-30.03L126.71-48.34L53.76-48.34L46.44-30.03L53.76-30.03Q64.60-30.03 69.21-25.85Q73.83-21.68 73.83-14.94Q73.83-8.35 69.21-4.17Q64.60 0 53.76 0L13.33 0Q2.49 0-2.12-4.17Q-6.74-8.35-6.74-15.09Q-6.74-21.83-1.90-26.07Q2.93-30.32 14.06-30.03L61.23-147.51L41.60-147.51Q30.76-147.51 26.15-151.68Q21.53-155.86 21.53-162.60Q21.53-169.34 26.15-173.51Q30.76-177.69 41.60-177.69L106.49-177.54L166.26-30.03Q176.81-30.03 180.18-27.69Q186.91-22.85 186.91-14.94Q186.91-8.35 182.37-4.17Q177.83 0 166.99 0L126.56 0Q115.72 0 111.11-4.17Q106.49-8.35 106.49-15.09Q106.49-21.68 111.11-25.85Q115.72-30.03 126.56-30.03L133.89-30.03M65.77-78.37L114.26-78.37L90.09-137.84 M317.14-169.92Q319.92-173.73 323.22-175.63Q326.51-177.54 330.32-177.54Q336.91-177.54 341.09-173Q345.26-168.46 345.26-157.62L345.26-132.13Q345.26-121.29 341.09-116.67Q336.91-112.06 330.32-112.06Q324.32-112.06 320.65-115.43Q316.99-118.80 315.23-128.03Q314.21-134.18 311.13-137.55Q305.13-144.14 294.36-148.10Q283.59-152.05 272.75-152.05Q259.28-152.05 248-146.19Q236.72-140.33 228.08-127.15Q219.43-113.96 219.43-95.80L219.43-76.32Q219.43-54.64 235.18-40.14Q250.93-25.63 278.91-25.63Q295.61-25.63 307.18-30.18Q313.92-32.81 321.53-40.58Q326.22-45.26 328.86-46.66Q331.49-48.05 334.86-48.05Q340.87-48.05 345.41-43.51Q349.95-38.96 349.95-32.81Q349.95-26.66 343.80-19.63Q334.86-9.37 320.80-3.52Q301.90 4.39 279.05 4.39Q252.39 4.39 231.01-6.59Q213.72-15.38 201.56-34.35Q189.40-53.32 189.40-75.73L189.40-96.09Q189.40-119.53 200.32-139.82Q211.23-160.11 230.57-171.09Q249.90-182.08 271.58-182.08Q284.62-182.08 295.97-179.08Q307.32-176.07 317.14-169.92 M461.13-60.94L432.71-60.94L432.71-30.03L463.04-30.03Q473.88-30.03 478.49-25.85Q483.11-21.68 483.11-14.94Q483.11-8.35 478.49-4.17Q473.88 0 463.04 0L398 0Q387.16 0 382.54-4.17Q377.93-8.35 377.93-15.09Q377.93-21.68 382.62-25.85Q387.30-30.03 398-30.03L402.69-30.03L402.69-147.51L398-147.51Q387.16-147.51 382.54-151.68Q377.93-155.86 377.93-162.60Q377.93-169.34 382.54-173.51Q387.16-177.69 398-177.69L467.14-177.54Q497.61-177.54 515.41-160.91Q533.20-144.29 533.20-120.41Q533.20-107.23 527.20-95.51Q522.66-86.72 512.04-78.15Q501.42-69.58 490.36-65.26Q479.30-60.94 461.13-60.94M432.71-147.51L432.71-90.97L460.55-90.97Q480.18-90.97 491.67-99.83Q503.17-108.69 503.17-121.14Q503.17-131.69 493.87-139.60Q484.57-147.51 467.29-147.51"/></g>
</svg>